<svg xmlns="http://www.w3.org/2000/svg" width="72" height="72" viewBox="0 0 72 72">
<g id="color"><polygon points="12,62 60,62 42,34 30,34" fill="#e6e6e6"/><g transform="translate(36, 22) rotate(-20)"><path d="M 0,-9 L -9,-9 A 9,9 0 0,0 -18,0 A 9,9 0 0,0 -9,9 L 0,9 Z" fill="#ea5a5a"/><path d="M 0,-9 L 9,-9 A 9,9 0 0,1 18,0 A 9,9 0 0,1 9,9 L 0,9 Z" fill="#ffffff"/></g><circle cx="18" cy="56" r="2.5" fill="#fddb3a"/><circle cx="25" cy="45" r="2" fill="#fddb3a"/><circle cx="31" cy="36" r="1.5" fill="#fddb3a"/><circle cx="54" cy="56" r="2.5" fill="#fddb3a"/><circle cx="47" cy="45" r="2" fill="#fddb3a"/><circle cx="41" cy="36" r="1.5" fill="#fddb3a"/><path d="M58,6 C58,8.5 59.5,10 62,10 C59.5,10 58,11.5 58,14 C58,11.5 56.5,10 54,10 C56.5,10 58,8.5 58,6 Z" fill="#fddb3a"/><path d="M14,11 C14,13 15.2,14.2 17.2,14.2 C15.2,14.2 14,15.4 14,17.4 C14,15.4 12.8,14.2 10.8,14.2 C12.8,14.2 14,13 14,11 Z" fill="#fddb3a"/><path d="M50,25 C50,26.5 51,27.5 52.5,27.5 C51,27.5 50,28.5 50,30 C50,28.5 49,27.5 47.5,27.5 C49,27.5 50,26.5 50,25 Z" fill="#fddb3a"/></g><g id="line"><polygon points="12,62 60,62 42,34 30,34" fill="none" stroke="#000000" stroke-width="2" stroke-linejoin="round"/><line x1="36" y1="58" x2="36" y2="50" stroke="#000000" stroke-width="2" stroke-linecap="round"/><line x1="36" y1="46" x2="36" y2="40" stroke="#000000" stroke-width="2" stroke-linecap="round"/><line x1="36" y1="37" x2="36" y2="35" stroke="#000000" stroke-width="1.5" stroke-linecap="round"/><circle cx="18" cy="56" r="2.5" fill="none" stroke="#000000" stroke-width="1.5"/><circle cx="25" cy="45" r="2" fill="none" stroke="#000000" stroke-width="1.5"/><circle cx="31" cy="36" r="1.5" fill="none" stroke="#000000" stroke-width="1.5"/><circle cx="54" cy="56" r="2.5" fill="none" stroke="#000000" stroke-width="1.5"/><circle cx="47" cy="45" r="2" fill="none" stroke="#000000" stroke-width="1.5"/><circle cx="41" cy="36" r="1.5" fill="none" stroke="#000000" stroke-width="1.5"/><g transform="translate(36, 22) rotate(-20)"><rect x="-18" y="-9" width="36" height="18" rx="9" fill="none" stroke="#000000" stroke-width="2"/><line x1="0" y1="-9" x2="0" y2="9" stroke="#000000" stroke-width="2"/><line x1="-12" y1="0" x2="-6" y2="0" stroke="#ffffff" stroke-width="2" stroke-linecap="round"/><line x1="-9" y1="-3" x2="-9" y2="3" stroke="#ffffff" stroke-width="2" stroke-linecap="round"/></g><path d="M58,6 C58,8.5 59.5,10 62,10 C59.5,10 58,11.5 58,14 C58,11.5 56.5,10 54,10 C56.5,10 58,8.5 58,6 Z" fill="none" stroke="#000000" stroke-width="1.5" stroke-linejoin="round"/><path d="M14,11 C14,13 15.2,14.2 17.2,14.2 C15.2,14.2 14,15.4 14,17.4 C14,15.4 12.8,14.2 10.8,14.2 C12.8,14.2 14,13 14,11 Z" fill="none" stroke="#000000" stroke-width="1.5" stroke-linejoin="round"/><path d="M50,25 C50,26.5 51,27.5 52.5,27.5 C51,27.5 50,28.5 50,30 C50,28.5 49,27.5 47.5,27.5 C49,27.5 50,26.5 50,25 Z" fill="none" stroke="#000000" stroke-width="1.2" stroke-linejoin="round"/></g>
</svg>
